HIERARCHY
ROOT Hips
{
	OFFSET 0.000000 0.000000 0.000000 
	CHANNELS 6 Xposition Yposition Zposition Zrotation Yrotation Xrotation
	JOINT LHipJoint
	{
		OFFSET 0.000000 0.000000 0.000000 
		CHANNELS 3 Zrotation Yrotation Xrotation
		JOINT LeftHip
		{
			OFFSET 1.656740 -1.802820 0.624770 
			CHANNELS 3 Zrotation Yrotation Xrotation
			JOINT LeftKnee
			{
				OFFSET 2.597200 -7.135760 0.000000 
				CHANNELS 3 Zrotation Yrotation Xrotation
				JOINT LeftAnkle
				{
					OFFSET 2.492360 -6.847700 0.000000 
					CHANNELS 3 Zrotation Yrotation Xrotation
					JOINT LeftToe
					{
						OFFSET 0.197040 -0.541360 2.145810 
						CHANNELS 3 Zrotation Yrotation Xrotation
						End Site
						{
							OFFSET 0.000000 -0.000000 1.112490 
						}
					}
				}
			}
		}
	}
	JOINT RHipJoint
	{
		OFFSET 0.000000 0.000000 0.000000 
		CHANNELS 3 Zrotation Yrotation Xrotation
		JOINT RightHip
		{
			OFFSET -1.610700 -1.802820 0.624760 
			CHANNELS 3 Zrotation Yrotation Xrotation
			JOINT RightKnee
			{
				OFFSET -2.595020 -7.129770 0.000000 
				CHANNELS 3 Zrotation Yrotation Xrotation
				JOINT RightAnkle
				{
					OFFSET -2.467800 -6.780240 0.000000 
					CHANNELS 3 Zrotation Yrotation Xrotation
					JOINT RightToe
					{
						OFFSET -0.230240 -0.632580 2.133680 
						CHANNELS 3 Zrotation Yrotation Xrotation
						End Site
						{
							OFFSET -0.000000 -0.000000 1.115690 
						}
					}
				}
			}
		}
	}
	JOINT lowerback
	{
		OFFSET 0.000000 0.000000 0.000000 
		CHANNELS 3 Zrotation Yrotation Xrotation
		JOINT Chest
		{
			OFFSET 0.019610 2.054500 -0.141120 
			CHANNELS 3 Zrotation Yrotation Xrotation
			JOINT Chest2
			{
				OFFSET 0.010210 2.064360 -0.059210 
				CHANNELS 3 Zrotation Yrotation Xrotation
				JOINT lowerneck
				{
					OFFSET 0.000000 0.000000 0.000000 
					CHANNELS 3 Zrotation Yrotation Xrotation
					JOINT Neck
					{
						OFFSET 0.007130 1.567110 0.149680 
						CHANNELS 3 Zrotation Yrotation Xrotation
						JOINT Head
						{
							OFFSET 0.034290 1.560410 -0.100060 
							CHANNELS 3 Zrotation Yrotation Xrotation
							End Site
							{
								OFFSET 0.013050 1.625600 -0.052650 
							}
						}
					}
				}
				JOINT LeftCollar
				{
					OFFSET 0.000000 0.000000 0.000000 
					CHANNELS 3 Zrotation Yrotation Xrotation
					JOINT LeftShoulder
					{
						OFFSET 3.542050 0.904360 -0.173640 
						CHANNELS 3 Zrotation Xrotation Yrotation
						JOINT LeftElbow
						{
							OFFSET 0.000000 -4.865130 -0.000000 
							CHANNELS 3 Zrotation Xrotation Yrotation
							JOINT LeftWrist
							{
								OFFSET 0.000000 -3.355540 0.000000 
								CHANNELS 3 Zrotation Xrotation Yrotation
								JOINT lhand
								{
									OFFSET 0.000000 0.000000 0.000000 
									CHANNELS 3 Zrotation Xrotation Yrotation
									JOINT LFingers
									{
										OFFSET 0.000000 -0.661170 0.000000 
										CHANNELS 3 Zrotation Xrotation Yrotation
										End Site
										{
											OFFSET 0.000000 -0.533060 0.000000 
										}
									}
								}
								JOINT LThumb
								{
									OFFSET 0.000000 0.000000 0.000000 
									CHANNELS 3 Zrotation Xrotation Yrotation
									End Site
									{
										OFFSET 0.000000 -0.541200 0.541200 
									}
								}
							}
						}
					}
				}
				JOINT RightCollar
				{
					OFFSET 0.000000 0.000000 0.000000 
					CHANNELS 3 Zrotation Yrotation Xrotation
					JOINT RightShoulder
					{
						OFFSET -3.498020 0.759940 -0.326160 
						CHANNELS 3 Zrotation Xrotation Yrotation
						JOINT RightElbow
						{
							OFFSET 0.000000 -5.026490 0.000000 
							CHANNELS 3 Zrotation Xrotation Yrotation
							JOINT RightWrist
							{
								OFFSET 0.000000 -3.364310 0.000000 
								CHANNELS 3 Zrotation Xrotation Yrotation
								JOINT rhand
								{
									OFFSET 0.000000 0.000000 0.000000 
									CHANNELS 3 Zrotation Xrotation Yrotation
									JOINT RFingers
									{
										OFFSET 0.000000 -0.730410 0.000000 
										CHANNELS 3 Zrotation Xrotation Yrotation
										End Site
										{
											OFFSET 0.000000 -0.588870 0.000000 
										}
									}
								}
								JOINT RThumb
								{
									OFFSET 0.000000 0.000000 0.000000 
									CHANNELS 3 Zrotation Xrotation Yrotation
									End Site
									{
										OFFSET 0.000000 -0.597860 0.597860 
									}
								}
							}
						}
					}
				}
			}
		}
	}
}
MOTION
Frames: 4
Frame Time: 0.033558
0.000000 0.000000 0.000000 -5.606300 -5.684400 -0.221600 0.020256 0.020256 0.020256 -9.329300 -12.852500 -39.022800 4.237200 12.469500 37.413799 0.259700 5.382900 -13.110100 0.287300 -3.447200 -9.526500 0.020256 0.020256 0.020256 29.373199 -3.037700 14.253700 -0.264100 -3.306300 9.132700 -1.221000 1.373500 -20.482599 0.020256 -0.632000 1.736800 7.372800 0.611800 12.576200 0.829900 1.774400 3.178500 -3.554400 0.834200 -3.497900 0.355100 1.139900 -12.191300 -4.967200 1.361400 -6.788800 -1.565300 0.627200 -0.054000 0.020256 0.020256 0.020256 -1.953800 12.359000 16.422400 7.345600 -12.486600 0.804700 26.843100 -3.801000 -17.307699 0.020256 0.020256 0.020256 -7.125000 0.020256 0.020256 -1.074500 49.228199 0.112000 0.020256 0.020256 0.020256 -11.352600 -18.733801 46.967899 -38.295700 -47.027100 -17.181601 -32.913898 -33.025799 -18.305300 0.020256 0.020256 0.020256 7.125000 0.020256 0.020256 -3.099700 8.497300 -2.611600 
0.000000 0.000000 0.000000 -6.052400 -7.426500 0.170900 0.000000 0.000000 0.000000 -6.709500 -14.690400 -38.918900 3.049300 10.774500 31.522900 0.286200 7.750700 -15.770500 0.263300 -3.300900 -9.117500 0.000000 0.000000 0.000000 28.828100 -3.824000 21.757000 0.000000 0.000000 -0.000000 -0.678000 -1.647300 -16.235701 -0.061300 1.597700 -4.395100 8.147500 0.540200 13.035000 0.654500 1.836100 2.765000 -4.204100 0.820400 -4.146200 0.033900 1.534600 -12.439300 -4.451200 1.957500 -6.178400 -1.319700 0.922700 0.183800 -0.000000 0.000000 0.000000 -2.938900 14.398000 22.221399 6.784800 -11.564500 0.687900 25.792700 0.020800 -17.001301 0.000000 0.000000 0.000000 -7.125000 0.000000 0.000000 -2.046100 48.725800 0.188100 -0.000000 0.000000 0.000000 -11.459600 -20.755600 48.136299 -39.761398 -47.927898 -18.261900 -33.813801 -32.622501 -18.655500 0.000000 0.000000 0.000000 7.125000 0.000000 -0.000000 -3.620800 7.901800 -3.095000 
0.000000 0.000000 0.000000 -6.571400 -9.432400 -0.015600 0.000000 0.000000 0.000000 -5.156500 -14.588000 -38.266602 3.036000 10.753000 31.451500 0.281100 9.007200 -17.022600 0.154900 -2.536400 -6.990500 0.000000 0.000000 0.000000 28.423599 -3.014400 25.892200 0.000000 -0.000000 0.000000 -0.556800 -1.759300 -14.842500 -0.161000 2.585500 -7.126900 8.334100 0.982400 12.416900 0.718900 2.342300 3.467200 -4.279700 1.137200 -2.991100 0.222600 1.753300 -12.559400 -4.382200 2.175300 -7.476700 -1.325600 1.045300 -0.202900 -0.000000 -0.000000 0.000000 -4.131700 15.075100 22.924101 6.957500 -11.849300 0.722900 25.023300 0.293400 -16.586599 0.000000 0.000000 0.000000 -7.125000 0.000000 0.000000 -2.712800 48.157398 0.211500 -0.000000 -0.000000 0.000000 -11.497800 -22.605400 47.832699 -40.248001 -48.216099 -18.623899 -33.361198 -32.662601 -19.204201 0.000000 0.000000 0.000000 7.125000 0.000000 -0.000000 -3.249200 7.372000 -2.810100 
0.000000 0.000000 0.000000 -5.917700 -10.547100 0.142700 0.000000 0.000000 0.000000 -7.037600 -12.232500 -37.743801 3.736700 11.801500 35.033501 0.262000 9.117900 -16.900999 0.105400 -2.093000 -5.762800 0.000000 0.000000 0.000000 26.705299 -2.652000 29.271601 0.000000 -0.000000 0.000000 -0.230100 -3.359300 -10.940000 -0.824500 5.793500 -16.186600 6.957000 1.449600 11.801800 0.739000 2.773300 2.826500 -3.536400 1.326600 -3.346100 -1.111500 1.862800 -13.758200 -2.362900 2.614400 -5.086300 -0.430500 1.274600 0.707000 0.000000 -0.000000 0.000000 -5.144300 16.621901 24.155701 6.839100 -11.654100 0.698800 26.231600 3.664400 -21.226700 0.000000 0.000000 0.000000 -7.125000 0.000000 0.000000 -2.557200 53.374599 0.527000 0.000000 -0.000000 0.000000 -11.789900 -20.457199 47.437801 -40.338699 -48.269299 -18.691601 -32.714802 -32.081799 -18.392799 0.000000 0.000000 0.000000 7.125000 0.000000 -0.000000 -2.959600 8.439000 -2.496600 
